<svg xmlns="http://www.w3.org/2000/svg" xmlns:xlink="http://www.w3.org/1999/xlink" width="27.282" height="27.282" viewBox="0 0 27.282 27.282">
  <defs>
    <clipPath id="clip-path">
      <rect id="Rectangle_157" data-name="Rectangle 157" width="27.282" height="27.282" fill="#5fc8ff"/>
    </clipPath>
  </defs>
  <g id="Group_223" data-name="Group 223" clip-path="url(#clip-path)">
    <path id="Path_149" data-name="Path 149" d="M27.282,13.641A13.641,13.641,0,1,1,13.641,0,13.641,13.641,0,0,1,27.282,13.641" fill="#d8f2ff"/>
    <path id="Path_150" data-name="Path 150" d="M59.168,45.735a3.534,3.534,0,0,1,.626-1.983,6.471,6.471,0,0,1,1.358-1.523,8.53,8.53,0,0,0,1.357-1.357,2.49,2.49,0,0,0,.626-1.558,1.532,1.532,0,0,0-.567-1.275,2.491,2.491,0,0,0-1.582-.449,2.883,2.883,0,0,0-2.809,2.1l-2.786-1.606a5.53,5.53,0,0,1,2.255-2.7,6.445,6.445,0,0,1,3.459-.956,5.822,5.822,0,0,1,3.718,1.239,4.109,4.109,0,0,1,1.57,3.412,4.16,4.16,0,0,1-.413,1.842,5.625,5.625,0,0,1-.992,1.452q-.579.6-1.157,1.133a7.473,7.473,0,0,0-.992,1.1,1.915,1.915,0,0,0-.413,1.133ZM62.214,51a2,2,0,1,1,.59-1.417A1.933,1.933,0,0,1,62.214,51" transform="translate(-47.251 -29.367)" fill="#5fc8ff"/>
  </g>
</svg>
