<svg id="Group_122" data-name="Group 122" xmlns="http://www.w3.org/2000/svg" xmlns:xlink="http://www.w3.org/1999/xlink" width="131.051" height="156.016" viewBox="0 0 131.051 156.016">
  <defs>
    <linearGradient id="linear-gradient" x1="-0.086" y1="0.567" x2="1.064" y2="0.387" gradientUnits="objectBoundingBox">
      <stop offset="0" stop-color="#acdeff"/>
      <stop offset="1" stop-color="#c2e7ff"/>
    </linearGradient>
    <clipPath id="clip-path">
      <path id="Path_84" data-name="Path 84" d="M25.533,156.022a8.561,8.561,0,0,1,.61-9.395,9.053,9.053,0,0,1,7.73-4.155H141.038c.575,0,1.143.062,1.886.1v6.132H35.373a11.074,11.074,0,0,0-1.945.042,3.109,3.109,0,0,0,0,6.155,11.08,11.08,0,0,0,1.945.042H142.983a29.454,29.454,0,0,1-.029,3.571,2.923,2.923,0,0,1-2.7,2.643,7.778,7.778,0,0,1-1.169.023H34.058a9.166,9.166,0,0,1-8.525-5.162M88.009,11.514c2.854,2.334,2.7,4.415-.513,6.363-3.886,2.354-7.775,4.7-11.706,6.976a2.372,2.372,0,0,0-1.419,2.432c.114,3.048.071,6.1.091,9.155q26.218,0,52.432-.01c2.548,0,3.633,1.12,3.636,3.72q.024,11.887,0,23.783c-.006,2.5-1.094,3.672-3.487,3.672q-32.645.01-65.294-.019A77.352,77.352,0,0,1,43.19,76.262q.01,25.044.019,50.085c0,2.3-1.191,3.649-3.129,3.642s-3.1-1.347-3.1-3.675q-.01-24.26.006-48.526a74.741,74.741,0,0,1-18.6.919c-.039.776-.114,1.555-.114,2.331q0,34.992,0,69.985c0,9.707,6.684,16.4,16.378,16.4q13.771,0,27.542-.007,38.372-.02,76.737.081h.055a10.263,10.263,0,0,0,10.336-10.33c-.127-45.163-.068-90.323-.068-135.483,0-.454.01-.909-.006-1.367-.169-4.532-4.279-8.8-8.807-8.814q-8.424-.024-16.849-.023-17.788,0-35.577.036" transform="translate(-18.265 -11.478)" fill="url(#linear-gradient)"/>
    </clipPath>
  </defs>
  <g id="Group_121" data-name="Group 121" clip-path="url(#clip-path)">
    <rect id="Rectangle_77" data-name="Rectangle 77" width="202.331" height="203.46" transform="matrix(0.729, -0.684, 0.684, 0.729, -77.849, 73.021)" fill="url(#linear-gradient)"/>
  </g>
</svg>
