<svg xmlns="http://www.w3.org/2000/svg" width="131.062" height="115.22" viewBox="0 0 131.062 115.22">
  <path id="Path_156" data-name="Path 156" d="M102.779,93.368a77.361,77.361,0,0,1-18.559,8.681q-3.1.76-6.2,1.526a75.069,75.069,0,0,1-18.608.919A69.959,69.959,0,0,1,37.466,98.41c0,4.454.006,8.658,0,12.862-.006,2.5-1.1,3.9-3.045,3.948-2,.049-3.185-1.415-3.191-4-.006-4.74-.052-9.483.029-14.222a3.219,3.219,0,0,0-1.536-2.967c-4.3-3.328-8.5-6.791-12.57-10.4A5.331,5.331,0,0,1,15.7,80.068c-.12-8.96-.094-17.92-.032-26.883a2.566,2.566,0,0,0-1.451-2.607c-3.931-2.259-7.807-4.62-11.693-6.96-3.344-2.013-3.353-4.457-.055-6.438Q32.728,19.022,62.962.828A4.435,4.435,0,0,1,68.153.85Q97.541,18.571,127,36.18c.666.4,1.357.747,2.035,1.117,2.854,2.334,2.7,4.415-.51,6.363-3.886,2.357-7.775,4.7-11.706,6.976a2.372,2.372,0,0,0-1.419,2.432c.114,3.048.071,6.1.091,9.158v6.2a50.907,50.907,0,0,0-.019,6.175c.575,5.048-.354,9.421-4.788,12.5q-3.949,3.136-7.9,6.265M97.445,62.541l-.016-.01q-6.6,3.92-13.2,7.833L77.9,74.133c-3.129,1.841-6.334,3.564-9.359,5.561-2.143,1.412-4,1.484-6.051-.052A29.354,29.354,0,0,0,59.3,77.805c-7.165-4.357-14.333-8.713-21.393-13-.292.2-.386.234-.386.269-.023,8.5-.052,17-.026,25.5a1.572,1.572,0,0,0,.717,1.165A55.234,55.234,0,0,0,59.278,98.03,50.413,50.413,0,0,0,78.022,97q3.112-.838,6.22-1.678,6.243-2.893,12.489-5.791,3.121-2.157,6.243-4.318c1.831-1.617,3.7-3.2,5.47-4.876a2.533,2.533,0,0,0,.711-1.656c.045-3.418-.006-6.837-.026-10.258V55.165c-4.159,2.626-7.921,5-11.684,7.376M60.083,47.387c-6.473,3.837-12.946,7.674-19.744,11.7l18.92,11.219c1.76,1.081,3.487,2.224,5.3,3.207a2.268,2.268,0,0,0,1.886.045c3.892-2.285,7.726-4.672,11.576-7.025q3.165-1.88,6.334-3.759c.347-.175.7-.328,1.036-.526q15.933-9.559,31.856-19.127c1.422-.854,2.834-1.727,4.568-2.789-2.019-1.152-3.737-2.136-5.451-3.116a4.813,4.813,0,0,0-.584-.484Q91.287,22.017,66.8,7.288a2.211,2.211,0,0,0-2.636.094Q37.435,23.476,10.673,39.521c-.409.243-.773.562-1.292.948,7.915,4.746,15.651,9.343,23.332,14.037a2.723,2.723,0,0,0,3.3-.01C44.984,49.039,54,43.657,63,38.258c2.558-1.532,3.564-1.373,5.525.831a3.782,3.782,0,0,1-2.182,4.47c-2.133,1.191-4.178,2.545-6.262,3.827M30.866,87.645c.247-.49.341-.594.341-.7q.019-12.554,0-25.111c0-.406-.114-1.01-.386-1.182-2.873-1.8-5.788-3.526-8.947-5.428,0,8.148-.006,15.862.016,23.575a1.807,1.807,0,0,0,.393,1.217c2.808,2.545,5.658,5.038,8.583,7.626" transform="translate(0 0)" fill="#7fb3e1"/>
</svg>
