<svg xmlns="http://www.w3.org/2000/svg" width="144.725" height="128.81" viewBox="0 0 144.725 128.81">
  <g id="Group_10" data-name="Group 10" transform="translate(0 -17.063)">
    <g id="Group_11" data-name="Group 11" transform="translate(0 17.063)">
      <path id="Path_12" data-name="Path 12" d="M92.255,0c.03.547.086,1.093.086,1.64q.007,30.3.035,60.6A3.392,3.392,0,0,1,90.94,65.1C84.286,70.605,77.7,76.161,71.083,81.7c-.412.345-.851.667-1.617,1.267V80.951q0-39.58,0-79.161c0-.6-.055-1.193-.086-1.79Z" transform="translate(6.767)" fill="#fff" opacity="0.2"/>
      <path id="Path_13" data-name="Path 13" d="M0,55.7H22.879v1.924c0,12.734-.016,25.466.025,38.2a3.7,3.7,0,0,1-1.25,2.938c-6.794,6.583-13.533,13.223-20.3,19.836-.414.4-.9.73-1.358,1.092V55.7" transform="translate(0 -10.659)" fill="#fff" opacity="0.1"/>
      <path id="Path_14" data-name="Path 14" d="M120.659,69.341l-13.672-13.61h37.726V93.184c-4.369-4.458-8.675-8.85-13.162-13.426L76.263,134.573,49.832,111.591c-.454.413-.887.784-1.3,1.179q-13.1,12.682-26.171,25.385a4.041,4.041,0,0,1-3.125,1.31c-5.659-.074-11.319-.03-16.979-.035-.571,0-1.141-.049-2.135-.1l49.2-48.217L75.985,113.6l44.673-44.256" transform="translate(0.012 -10.656)" fill="#fff" opacity="0.3"/>
      <path id="Path_15" data-name="Path 15" d="M34.917,27.846h22.55V72.553L45.642,64.828,34.917,72.4Z" transform="translate(3.406 0.133)" fill="#fff" opacity="0.1"/>
    </g>
  </g>
</svg>
