<svg id="Iconly_Bulk_Info-Circle" data-name="Iconly/Bulk/Info-Circle" xmlns="http://www.w3.org/2000/svg" width="18.268" height="18.268" viewBox="0 0 18.268 18.268">
  <path id="Fill-1" d="M20.268,11.134A9.134,9.134,0,1,1,11.134,2a9.133,9.133,0,0,1,9.134,9.134" transform="translate(-2 -2)" fill="#52b9ec" opacity="0.4"/>
  <path id="Combined-Shape" d="M11.919,14.271a.8.8,0,1,1-.795.8A.8.8,0,0,1,11.919,14.271Zm0-6.935a.8.8,0,0,1,.8.8h0v4.037a.8.8,0,1,1-1.6,0h0V8.135A.8.8,0,0,1,11.919,7.336Z" transform="translate(-2.79 -2.462)" fill="#52b9ec"/>
</svg>
