<svg id="Iconly_Bulk_Ticket-Star" data-name="Iconly/Bulk/Ticket-Star" xmlns="http://www.w3.org/2000/svg" width="18.268" height="16.441" viewBox="0 0 18.268 16.441">
  <g id="Ticket-Star" transform="translate(0 0)">
    <path id="Fill-1" d="M17.583,9.569a1.348,1.348,0,1,1,0-2.7.688.688,0,0,0,.484-.2.676.676,0,0,0,.2-.481V3.749A3.771,3.771,0,0,0,14.483,0H3.785A3.771,3.771,0,0,0,0,3.749V6.273a.676.676,0,0,0,.2.481.688.688,0,0,0,.484.2,1.288,1.288,0,0,1,1.36,1.27A1.355,1.355,0,0,1,.685,9.569.682.682,0,0,0,0,10.248v2.444a3.771,3.771,0,0,0,3.784,3.75h10.7a3.771,3.771,0,0,0,3.784-3.75V10.248a.682.682,0,0,0-.685-.679" fill="#52b9ec" opacity="0.4"/>
    <path id="Fill-4" d="M12.817,8.3,11.74,9.344l.255,1.482a.677.677,0,0,1-.983.712l-1.329-.7-1.332.7a.675.675,0,0,1-.979-.712l.254-1.482L6.549,8.3a.675.675,0,0,1,.377-1.153l1.485-.216.666-1.349A.674.674,0,0,1,9.683,5.2h0a.673.673,0,0,1,.6.377l.666,1.348,1.488.217A.675.675,0,0,1,12.817,8.3" transform="translate(-0.55 -0.45)" fill="#52b9ec"/>
  </g>
</svg>
