<svg id="Iconly_Bulk_Folder" data-name="Iconly/Bulk/Folder" xmlns="http://www.w3.org/2000/svg" width="18.268" height="18.268" viewBox="0 0 18.268 18.268">
  <g id="Folder" transform="translate(0 0)">
    <path id="Folder-2" d="M13.6,2.845H10.907a2.219,2.219,0,0,1-1.73-.81L8.292.811A2.162,2.162,0,0,0,6.57,0H4.67C1.259,0,0,2,0,5.406v3.68c0,.4,18.264.4,18.265,0V8.016C18.281,4.612,17.055,2.845,13.6,2.845Z" transform="translate(0 0)" fill="#52b9ec" opacity="0.4"/>
    <path id="Path_76" data-name="Path 76" d="M13.587,3.113a4.766,4.766,0,0,1,3.314,1,2.62,2.62,0,0,1,.3.3,3.613,3.613,0,0,1,.666,1.159,7.806,7.806,0,0,1,.4,2.707h0v4.8a8.542,8.542,0,0,1-.089,1.208,5.472,5.472,0,0,1-.731,1.994,4.053,4.053,0,0,1-.617.81,5.48,5.48,0,0,1-3.988,1.435H5.417a5.5,5.5,0,0,1-4-1.435,4.053,4.053,0,0,1-.609-.81A5.326,5.326,0,0,1,.1,14.29,7.51,7.51,0,0,1,0,13.082H0v-4.8a11.065,11.065,0,0,1,.065-1.2,4.392,4.392,0,0,0,.081-.543A5.147,5.147,0,0,1,.593,5.156C1.226,3.8,2.526,3.113,4.654,3.113h8.933Zm.219,8.016H4.54a.754.754,0,1,0,0,1.507h9.21a.755.755,0,0,0,.788-.729.68.68,0,0,0-.162-.486.715.715,0,0,0-.568-.292Z" transform="translate(0 -0.268)" fill="#52b9ec"/>
  </g>
</svg>
