<svg id="Iconly_Bulk_Category" data-name="Iconly/Bulk/Category" xmlns="http://www.w3.org/2000/svg" width="16.648" height="16.648" viewBox="0 0 16.648 16.648">
  <g id="Category" transform="translate(0 0)">
    <path id="Fill-1" d="M13.65,0h2.819a2.122,2.122,0,0,1,2.113,2.131V4.973A2.122,2.122,0,0,1,16.469,7.1H13.65a2.122,2.122,0,0,1-2.113-2.131V2.131A2.122,2.122,0,0,1,13.65,0" transform="translate(-1.934 0)" fill="#52b9ec" opacity="0.4"/>
    <path id="Combined-Shape" d="M4.932,9.544a2.122,2.122,0,0,1,2.113,2.131v2.842a2.122,2.122,0,0,1-2.113,2.131H2.113A2.122,2.122,0,0,1,0,14.517V11.675A2.122,2.122,0,0,1,2.113,9.544Zm9.6,0a2.122,2.122,0,0,1,2.113,2.131v2.842a2.122,2.122,0,0,1-2.113,2.131H11.717A2.122,2.122,0,0,1,9.6,14.517V11.675a2.122,2.122,0,0,1,2.113-2.131ZM4.932,0A2.122,2.122,0,0,1,7.045,2.131V4.973A2.122,2.122,0,0,1,4.932,7.1H2.113A2.122,2.122,0,0,1,0,4.973V2.131A2.122,2.122,0,0,1,2.113,0Z" transform="translate(0 0)" fill="#52b9ec"/>
  </g>
</svg>
