<svg xmlns="http://www.w3.org/2000/svg" width="144.391" height="28.882" viewBox="0 0 144.391 28.882">
  <g id="Group_2" data-name="Group 2" transform="translate(0 0)">
    <g id="Group_82" data-name="Group 82" transform="translate(0 0)">
      <path id="Path_1" data-name="Path 1" d="M28.881,14.441A14.441,14.441,0,1,1,14.44,0,14.441,14.441,0,0,1,28.881,14.441" transform="translate(0 0)" fill="#52b9ec"/>
      <path id="Path_2" data-name="Path 2" d="M50.367,2.272h5.6V22.634h12.69v5.09H50.367Z" transform="translate(-12.368 -0.558)" fill="#1a1818"/>
      <path id="Path_3" data-name="Path 3" d="M76.778,14.929v-.072A13.162,13.162,0,0,1,90.341,1.694c7.854,0,13.49,5.854,13.49,13.09v.073A13.161,13.161,0,0,1,90.268,28.019c-7.854,0-13.49-5.854-13.49-13.09m21.2,0v-.072a7.732,7.732,0,0,0-7.708-8,7.612,7.612,0,0,0-7.636,7.926v.073a7.733,7.733,0,0,0,7.708,8,7.613,7.613,0,0,0,7.636-7.927" transform="translate(-18.853 -0.416)" fill="#1a1818"/>
      <path id="Path_4" data-name="Path 4" d="M117.744,14.929v-.072A13.064,13.064,0,0,1,131.089,1.694a13.975,13.975,0,0,1,10,3.491L137.56,9.439a9.371,9.371,0,0,0-6.654-2.582c-4.073,0-7.309,3.6-7.309,7.926v.073c0,4.654,3.2,8.072,7.709,8.072a8.86,8.86,0,0,0,5.272-1.527V17.765h-5.636V12.929H142V23.983a16.523,16.523,0,0,1-10.872,4.036c-7.927,0-13.381-5.526-13.381-13.09" transform="translate(-28.912 -0.416)" fill="#1a1818"/>
      <path id="Path_5" data-name="Path 5" d="M155.528,14.929v-.072A13.162,13.162,0,0,1,169.091,1.694c7.854,0,13.49,5.854,13.49,13.09v.073a13.162,13.162,0,0,1-13.563,13.162c-7.854,0-13.49-5.854-13.49-13.09m21.2,0v-.072a7.732,7.732,0,0,0-7.708-8,7.612,7.612,0,0,0-7.636,7.926v.073a7.733,7.733,0,0,0,7.708,8,7.613,7.613,0,0,0,7.636-7.927" transform="translate(-38.19 -0.416)" fill="#1a1818"/>
    </g>
  </g>
</svg>
