<svg id="Iconly_Bulk_Plus" data-name="Iconly/Bulk/Plus" xmlns="http://www.w3.org/2000/svg" width="18.268" height="18.268" viewBox="0 0 18.268 18.268">
  <g id="Plus" transform="translate(0 0)">
    <path id="Path_34200" d="M13.4,0H4.871C1.762,0,0,1.762,0,4.871V13.4c0,3.1,1.754,4.871,4.871,4.871H13.4c3.11,0,4.871-1.77,4.871-4.871V4.871C18.268,1.762,16.506,0,13.4,0Z" fill="#fff" opacity="0.4"/>
    <path id="Path_34201" d="M12.686,10.3H10.338v2.328a.685.685,0,0,1-1.369,0V10.3H6.621a.685.685,0,0,1,0-1.365H8.962V6.615a.693.693,0,0,1,1.377,0V8.936h2.348a.685.685,0,0,1,0,1.365Z" transform="translate(-0.52 -0.52)" fill="#fff"/>
  </g>
</svg>
