<svg id="Iconly_Bulk_Paper" data-name="Iconly/Bulk/Paper" xmlns="http://www.w3.org/2000/svg" width="15.528" height="18.268" viewBox="0 0 15.528 18.268">
  <g id="Paper" transform="translate(0 0)">
    <path id="Fill-3" d="M13.983,6.413c-.412,0-.959-.009-1.639-.009A3.047,3.047,0,0,1,9.322,3.357V.419A.416.416,0,0,0,8.908,0H4.077A4.1,4.1,0,0,0,0,4.118V13.96a4.286,4.286,0,0,0,4.265,4.308H11.46a4.088,4.088,0,0,0,4.068-4.108V6.824a.414.414,0,0,0-.413-.418c-.386,0-.849.007-1.131.007" fill="#52b9ec" opacity="0.4"/>
    <path id="Fill-1" d="M12.513.555a.436.436,0,0,0-.75.305V3.268A1.851,1.851,0,0,0,13.605,5.11c.637.007,1.521.009,2.272.007a.435.435,0,0,0,.313-.738c-.964-1-2.689-2.8-3.677-3.824" transform="translate(-1.019 -0.036)" fill="#52b9ec" opacity="0.4"/>
    <path id="Combined-Shape" d="M10.382,12.46a.68.68,0,1,1,0,1.36H5.41a.68.68,0,0,1,0-1.36ZM8.5,7.9a.68.68,0,1,1,0,1.36H5.409a.68.68,0,0,1,0-1.36Z" transform="translate(-0.41 -0.684)" fill="#52b9ec"/>
  </g>
</svg>
