<svg xmlns="http://www.w3.org/2000/svg" width="16.051" height="16.051" viewBox="0 0 16.051 16.051">
  <path id="calendar-clock" d="M6.688,15.047a1,1,0,0,1-1,1H3.678A3.682,3.682,0,0,1,0,12.372V5.016A3.682,3.682,0,0,1,3.678,1.338h.334V1A1,1,0,0,1,6.019,1v.334h4.013V1a1,1,0,1,1,2.006,0v.334h.334a3.683,3.683,0,0,1,3.678,3.678,1,1,0,0,1-1,1H2.006v6.353a1.674,1.674,0,0,0,1.672,1.672H5.685A1,1,0,0,1,6.688,15.047ZM16.051,11.7A4.347,4.347,0,1,1,11.7,7.356,4.347,4.347,0,0,1,16.051,11.7Zm-2.779.149-.564-.564v-.922a1,1,0,1,0-2.006,0v1.2a1.338,1.338,0,0,0,.392.946l.76.76a1,1,0,1,0,1.418-1.418Z" fill="#e0e0e0"/>
</svg>
