<svg xmlns="http://www.w3.org/2000/svg" width="15.87" height="17.317" viewBox="0 0 15.87 17.317">
  <path id="tags" d="M15.811,5.977,10.335.634A2.164,2.164,0,0,0,8.511.02L3.541.7a.721.721,0,1,0,.2,1.429l4.971-.68a.73.73,0,0,1,.614.211L14.8,7a2.167,2.167,0,0,1,.233,2.776,3.558,3.558,0,0,0-.657-.938L8.981,3.493a2.178,2.178,0,0,0-1.824-.614l-4.971.68a.721.721,0,0,0-.619.636l-.552,4.99a2.155,2.155,0,0,0,.623,1.77L6.989,16.26a3.58,3.58,0,0,0,2.55,1.056h.012a3.583,3.583,0,0,0,2.556-1.073l2.285-2.315a3.584,3.584,0,0,0,1.027-2.445l.416-.416a3.618,3.618,0,0,0-.023-5.092ZM4.608,7.215a.722.722,0,1,1,.722-.722A.722.722,0,0,1,4.608,7.215Z" transform="translate(-1.002 0.001)" fill="#e0e0e0"/>
</svg>
