        <svg
          id="Group_82"
          data-name="Group 82"
          xmlns="http://www.w3.org/2000/svg"
          width="1048.253"
          height="209.677"
          viewBox="0 0 1048.253 209.677"
        >
          <path
            id="Path_1"
            data-name="Path 1"
            d="M209.671,104.838A104.836,104.836,0,1,1,104.833,0,104.84,104.84,0,0,1,209.671,104.838"
            transform="translate(0 0)"
            fill="#fff"
          />
          <path
            id="Path_2"
            data-name="Path 2"
            d="M50.367,2.272H91.019V150.1h92.126V187.05H50.367Z"
            transform="translate(225.502 10.173)"
            fill="#fff"
          />
          <path
            id="Path_3"
            data-name="Path 3"
            d="M76.778,97.78v-.526c0-52.532,41.446-95.56,98.463-95.56s97.932,42.5,97.932,95.029v.531c0,52.526-41.44,95.555-98.458,95.555s-97.937-42.5-97.937-95.029m153.9,0v-.526c0-31.68-23.229-58.074-55.96-58.074s-55.434,25.869-55.434,57.543v.531c0,31.674,23.229,58.074,55.96,58.074s55.434-25.874,55.434-57.549"
            transform="translate(343.748 7.584)"
            fill="#fff"
          />
          <path
            id="Path_4"
            data-name="Path 4"
            d="M117.744,97.78v-.526c0-52.532,40.914-95.56,96.88-95.56,32.994,0,53.583,8.977,72.589,25.343L261.607,57.923c-13.989-11.88-27.189-18.743-48.3-18.743-29.566,0-53.063,26.132-53.063,57.543v.531c0,33.789,23.234,58.6,55.966,58.6,15.046,0,27.977-3.7,38.274-11.086v-26.4H213.567V83.26h80.246v80.251c-19.006,16.1-45.137,29.3-78.926,29.3-57.549,0-97.143-40.12-97.143-95.029"
            transform="translate(527.159 7.584)"
            fill="#fff"
          />
          <path
            id="Path_5"
            data-name="Path 5"
            d="M155.528,97.78v-.526c0-52.532,41.446-95.56,98.463-95.56s97.937,42.5,97.937,95.029v.531c0,52.526-41.446,95.555-98.463,95.555s-97.937-42.5-97.937-95.029m153.9,0v-.526c0-31.68-23.229-58.074-55.96-58.074s-55.434,25.869-55.434,57.543v.531c0,31.674,23.229,58.074,55.96,58.074s55.434-25.874,55.434-57.549"
            transform="translate(696.325 7.584)"
            fill="#fff"
          />
        </svg>