      <svg
        xmlns="http://www.w3.org/2000/svg"
        width="53.905"
        height="53.895"
        viewBox="0 0 53.905 53.895"
      >
        <g id="Group_193" data-name="Group 193" transform="translate(0 469)">
          <g id="Group_194" data-name="Group 194" transform="translate(0 -469)">
            <path
              id="Path_140"
              data-name="Path 140"
              d="M28.637,53.9H25.268c-.658-.081-1.317-.151-1.972-.246A27.064,27.064,0,0,1,.42,31.64c-.181-1-.281-2-.419-3.008V25.264c.08-.657.147-1.316.242-1.971A26.464,26.464,0,0,1,7.772,8.058,26.371,26.371,0,0,1,26.088.021,25.37,25.37,0,0,1,40.553,3.715c8.353,5.116,12.86,12.611,13.323,22.413a25.21,25.21,0,0,1-3.812,14.64A26.6,26.6,0,0,1,31.6,53.483c-.977.183-1.971.277-2.958.413M27.006,14.651q-7.08,0-14.159,0c-1.186,0-1.631.438-1.632,1.613q0,9.131,0,18.262c0,1.191.419,1.6,1.626,1.6h14.9a1.173,1.173,0,0,1,1.218,1.229c0,1.754,0,3.509,0,5.263A1.285,1.285,0,0,0,31,43.818c.65-.346,1.3-.685,1.936-1.062a.741.741,0,0,1,.86.01c.663.392,1.347.75,2.025,1.117a1.246,1.246,0,0,0,1.432-.081,1.379,1.379,0,0,0,.5-1.212q0-2.658,0-5.315a1.17,1.17,0,0,1,1.145-1.15c.825,0,1.651.029,2.473-.017a1.8,1.8,0,0,0,.9-.336c.43-.31.412-.817.412-1.3q0-9.052,0-18.1c0-1.32-.405-1.72-1.737-1.72H27.006"
              transform="translate(-0.001 0)"
              fill="#cbebff"
            />
            <path
              id="Path_141"
              data-name="Path 141"
              d="M111.454,138.681H97.98V122.3h26.339v16.366h-.658a6.186,6.186,0,0,0-2.2-5.669A5.983,5.983,0,0,0,117,131.62a6.209,6.209,0,0,0-5.549,7.061m-5.089-9.937c.965,0,1.93,0,2.895,0,.613,0,1.231.018,1.839-.043a1.187,1.187,0,0,0,1.047-1.246,1.222,1.222,0,0,0-1.094-1.211,4.622,4.622,0,0,0-.578-.025q-4.1,0-8.21,0a4.35,4.35,0,0,0-.63.031,1.211,1.211,0,0,0-1.04,1.147,1.26,1.26,0,0,0,1.4,1.342c1.456.014,2.912,0,4.368,0m-1.336,6.05c1.015,0,2.031,0,3.046,0a1.271,1.271,0,1,0,.018-2.523q-3.046-.008-6.092,0a1.268,1.268,0,1,0-.018,2.522c1.015.008,2.031,0,3.046,0"
              transform="translate(-84.203 -105.105)"
              fill="#cbebff"
            />
            <path
              id="Path_142"
              data-name="Path 142"
              d="M215.079,213.6A3.607,3.607,0,1,1,218.7,210a3.611,3.611,0,0,1-3.619,3.6"
              transform="translate(-181.735 -177.366)"
              fill="#cbebff"
            />
            <path
              id="Path_143"
              data-name="Path 143"
              d="M227.785,276.953a2.442,2.442,0,0,0-3.687,0v-2.1h3.687Z"
              transform="translate(-192.586 -236.204)"
              fill="#cbebff"
            />
            <path
              id="Path_144"
              data-name="Path 144"
              d="M95.533,104.192h13.949c1.332,0,1.737.4,1.737,1.72q0,9.052,0,18.1c0,.48.017.988-.412,1.3a1.8,1.8,0,0,1-.9.336c-.822.046-1.648.015-2.473.017a1.169,1.169,0,0,0-1.145,1.15q-.008,2.658,0,5.315a1.378,1.378,0,0,1-.5,1.212,1.245,1.245,0,0,1-1.432.081c-.678-.367-1.362-.724-2.025-1.117a.741.741,0,0,0-.86-.01c-.632.377-1.286.716-1.936,1.061a1.285,1.285,0,0,1-2.046-1.2c-.006-1.754,0-3.508,0-5.263a1.174,1.174,0,0,0-1.218-1.229h-14.9c-1.207,0-1.625-.407-1.626-1.6q0-9.131,0-18.262c0-1.175.446-1.612,1.632-1.613q7.08,0,14.159,0m.246,18.925a6.209,6.209,0,0,1,5.549-7.061,5.983,5.983,0,0,1,4.453,1.379,6.186,6.186,0,0,1,2.2,5.669h.658V106.739H82.3v16.378Zm6.093,2.659a3.607,3.607,0,1,0-3.608-3.617,3.591,3.591,0,0,0,3.608,3.617m1.855,4.514v-2.1h-3.687v2.1a2.442,2.442,0,0,1,3.687,0"
              transform="translate(-68.527 -89.541)"
              fill="#5fc8ff"
            />
            <path
              id="Path_145"
              data-name="Path 145"
              d="M122.321,152.67c-1.456,0-2.912.01-4.368,0a1.26,1.26,0,0,1-1.4-1.342,1.211,1.211,0,0,1,1.04-1.147,4.354,4.354,0,0,1,.63-.031q4.1,0,8.21,0a4.622,4.622,0,0,1,.578.025,1.222,1.222,0,0,1,1.094,1.211,1.187,1.187,0,0,1-1.047,1.246c-.608.061-1.226.039-1.839.043-.965.005-1.93,0-2.895,0"
              transform="translate(-100.159 -129.031)"
              fill="#5fc8ff"
            />
            <path
              id="Path_146"
              data-name="Path 146"
              d="M120.98,195.68c-1.015,0-2.031.006-3.046,0a1.268,1.268,0,1,1,.018-2.522q3.046-.008,6.092,0a1.271,1.271,0,1,1-.018,2.523c-1.015.005-2.031,0-3.046,0"
              transform="translate(-100.155 -165.992)"
              fill="#5fc8ff"
            />
          </g>
        </g>
      </svg>
