      <svg
        xmlns="http://www.w3.org/2000/svg"
        width="54.757"
        height="54.747"
        viewBox="0 0 54.757 54.747"
      >
        <g
          id="Group_185"
          data-name="Group 185"
          transform="translate(-1098.32 -1460.253)"
        >
          <path
            id="Path_120"
            data-name="Path 120"
            d="M122.278,80.828c.788-1.362,1.516-2.625,2.246-3.885a1.369,1.369,0,0,1,2.211-.577q3.1,1.785,6.2,3.574a1.354,1.354,0,0,1,.586,2.169c-1.25,2.174-2.505,4.345-3.773,6.543a11.478,11.478,0,0,1,4.053,9.739,11.076,11.076,0,0,1-3.726,7.631A11.568,11.568,0,1,1,114.8,88.645c-.222-.389-.446-.788-.675-1.184q-1.547-2.682-3.1-5.363a1.341,1.341,0,0,1,.559-2.134q3.142-1.817,6.287-3.629a1.353,1.353,0,0,1,2.136.572c.74,1.273,1.473,2.551,2.264,3.922m0,25.66a9,9,0,1,0-8.984-9.021,8.984,8.984,0,0,0,8.984,9.021M127.6,87.236,130.8,81.68l-4.538-2.624-3.96,6.863a12.168,12.168,0,0,1,5.289,1.317m-9.3-8.175-4.539,2.62,3.185,5.514c.68-.263,1.3-.489,1.9-.743a.862.862,0,0,0,.378-.333q.727-1.211,1.413-2.446a.576.576,0,0,0,.04-.471c-.773-1.377-1.569-2.741-2.377-4.142"
            transform="translate(1003.415 1395.084)"
            fill="#5fc8ff"
          />
          <path
            id="Path_124"
            data-name="Path 124"
            d="M157.39,191.791c.284.865.558,1.691.826,2.519a1.348,1.348,0,0,1-.383,1.636,1.31,1.31,0,0,1-1.716-.126c-.606-.438-1.218-.869-1.809-1.327a.446.446,0,0,0-.648,0c-.576.448-1.173.869-1.764,1.3-.7.507-1.234.555-1.761.163-.506-.377-.615-.916-.351-1.733l.786-2.428-2.063-1.5c-.711-.516-.937-1.038-.718-1.664.207-.592.684-.851,1.56-.848.695,0,1.391-.019,2.084.013a.506.506,0,0,0,.593-.442c.213-.734.453-1.461.694-2.186a1.294,1.294,0,0,1,2.522-.009c.236.709.477,1.417.674,2.137a.589.589,0,0,0,.714.5c.747-.038,1.5-.019,2.244-.012a1.285,1.285,0,0,1,.762,2.377c-.729.54-1.467,1.068-2.244,1.631m-2.857-.342.335-1.057-.888-.644-.889.647.338,1.055Z"
            transform="translate(971.712 1302.404)"
            fill="#5fc8ff"
          />
          <path
            id="Path_119"
            data-name="Path 119"
            d="M25.663,0h3.422c.933.122,1.872.207,2.8.371a26.867,26.867,0,0,1,17.252,10.45,26.464,26.464,0,0,1,5.234,20.994A26.478,26.478,0,0,1,43.934,49.128a26.6,26.6,0,0,1-20.255,5.36,26.414,26.414,0,0,1-14.387-6.6A26.95,26.95,0,0,1,.427,32.144C.243,31.132.14,30.1,0,29.084V25.663c.082-.669.152-1.339.248-2.005A26.992,26.992,0,0,1,7.85,8.226,26.812,26.812,0,0,1,22.659.421c1-.175,2-.282,3-.421m1.71,15.66c-.791-1.371-1.524-2.649-2.264-3.922a1.353,1.353,0,0,0-2.136-.572q-3.145,1.811-6.287,3.629a1.341,1.341,0,0,0-.559,2.134q1.544,2.684,3.1,5.363c.229.4.453.795.675,1.184A11.568,11.568,0,1,0,35.166,40.853a11.076,11.076,0,0,0,3.726-7.631,11.478,11.478,0,0,0-4.053-9.739c1.268-2.2,2.522-4.369,3.773-6.543a1.354,1.354,0,0,0-.586-2.169q-3.1-1.79-6.2-3.574a1.37,1.37,0,0,0-2.211.577c-.731,1.261-1.459,2.523-2.246,3.885"
            transform="translate(1098.32 1460.253)"
            fill="#cbebff"
          />
          <path
            id="Path_121"
            data-name="Path 121"
            d="M137.685,181.308a9,9,0,1,1,8.993-8.958,8.983,8.983,0,0,1-8.993,8.958m3.414-7.378c.777-.564,1.515-1.091,2.244-1.631a1.285,1.285,0,0,0-.762-2.377c-.748-.007-1.5-.026-2.244.012a.589.589,0,0,1-.714-.5c-.2-.72-.438-1.428-.674-2.137a1.294,1.294,0,0,0-2.523.009c-.242.726-.482,1.452-.694,2.186a.506.506,0,0,1-.593.442c-.693-.032-1.389-.011-2.084-.013-.876,0-1.352.255-1.56.848-.219.626.007,1.148.718,1.664l2.063,1.5-.786,2.428c-.265.817-.156,1.356.351,1.733.527.392,1.062.344,1.761-.163.591-.428,1.188-.85,1.764-1.3a.446.446,0,0,1,.648,0c.591.458,1.2.89,1.809,1.327a1.31,1.31,0,0,0,1.716.126,1.348,1.348,0,0,0,.383-1.636c-.267-.828-.542-1.654-.826-2.519"
            transform="translate(988.003 1320.265)"
            fill="#cbebff"
          />
          <path
            id="Path_122"
            data-name="Path 122"
            d="M197.116,105.4a12.171,12.171,0,0,0-5.289-1.317l3.96-6.863,4.538,2.624-3.208,5.556"
            transform="translate(933.895 1376.922)"
            fill="#cbebff"
          />
          <path
            id="Path_123"
            data-name="Path 123"
            d="M136.485,97.25c.809,1.4,1.6,2.765,2.377,4.142a.577.577,0,0,1-.04.471q-.684,1.235-1.413,2.446a.863.863,0,0,1-.378.333c-.6.254-1.22.48-1.9.743l-3.185-5.514,4.539-2.62"
            transform="translate(985.222 1376.895)"
            fill="#cbebff"
          />
          <path
            id="Path_125"
            data-name="Path 125"
            d="M186.84,225.008h-1.1l-.338-1.055.889-.647.888.644-.335,1.057"
            transform="translate(939.405 1268.845)"
            fill="#cbebff"
          />
        </g>
      </svg>