      <svg
        xmlns="http://www.w3.org/2000/svg"
        width="54.739"
        height="54.747"
        viewBox="0 0 54.739 54.747"
      >
        <g
          id="Group_188"
          data-name="Group 188"
          transform="translate(-1316.667 -1460.253)"
        >
          <path
            id="Path_127"
            data-name="Path 127"
            d="M1633.382,82.8l-.676-.679a3.968,3.968,0,0,1-.366.516q-3.566,3.579-7.14,7.148a1.374,1.374,0,0,1-1.475.5,1.261,1.261,0,0,1-.636-1.986,3.87,3.87,0,0,1,.363-.392q3.665-3.668,7.333-7.333a2.535,2.535,0,0,1,3.977-.005c.627.628,1.244,1.266,1.919,1.954.427-.44.8-.841,1.193-1.225a2.162,2.162,0,0,1,3.154-.031c.35.33.694.668,1.019,1.022a2.143,2.143,0,0,1-.012,3.034c-.39.413-.827.782-1.268,1.2.159.18.255.3.363.41.881.9.874,1.5-.029,2.4l-6.577,6.577q-6.879,6.879-13.752,13.765a1.819,1.819,0,0,1-1.719.594c-1.089-.181-2.188-.295-3.276-.477a.724.724,0,0,0-.742.255c-.362.393-.743.769-1.132,1.135a1.291,1.291,0,0,1-1.864.021,1.261,1.261,0,0,1,.046-1.821,14.749,14.749,0,0,1,1.06-1.056.92.92,0,0,0,.331-.936c-.171-1.054-.274-2.12-.468-3.169a1.726,1.726,0,0,1,.55-1.676q9.651-9.627,19.284-19.271c.15-.15.322-.277.544-.467m-5.648,9.247a.145.145,0,0,0-.047.021q-5.954,5.941-11.9,11.89a.643.643,0,0,0-.15.469c.094.813.222,1.621.331,2.432.034.259.121.394.423.425.743.075,1.485.179,2.218.318a.875.875,0,0,0,.884-.291q5.688-5.717,11.4-11.413c.121-.121.232-.253.33-.361l-3.488-3.49m5.328,1.533,5.439-5.436-3.35-3.422-5.464,5.463,3.375,3.394m5.858-8.83,1-.965-.435-.415-.99.95.425.43"
            transform="translate(-283.125 1392.016)"
            fill="#5fc8ff"
          />
          <path
            id="Path_126"
            data-name="Path 126"
            d="M1554.19,0h3.422c.915.118,1.836.2,2.744.359a26.563,26.563,0,0,1,14.73,7.539,26.6,26.6,0,0,1,7.811,23.862,26.285,26.285,0,0,1-10.519,17.432,27.267,27.267,0,0,1-34.558-1.306,26.951,26.951,0,0,1-8.865-15.743c-.184-1.013-.287-2.04-.427-3.06V25.663a4.127,4.127,0,0,0,.091-.466,26.618,26.618,0,0,1,5.688-14.6A26.927,26.927,0,0,1,1551.24.413c.977-.174,1.966-.277,2.95-.413m7.927,14.566c-.222.189-.394.317-.544.467q-9.641,9.636-19.284,19.271a1.727,1.727,0,0,0-.55,1.676c.194,1.049.3,2.115.468,3.169a.919.919,0,0,1-.331.936,14.7,14.7,0,0,0-1.06,1.056,1.261,1.261,0,0,0-.046,1.821,1.291,1.291,0,0,0,1.864-.021c.389-.367.77-.743,1.132-1.135a.724.724,0,0,1,.742-.255c1.088.183,2.188.3,3.276.477a1.819,1.819,0,0,0,1.719-.594q6.861-6.9,13.753-13.765l6.576-6.577c.9-.9.911-1.5.029-2.4-.108-.11-.2-.23-.363-.41.442-.413.879-.782,1.269-1.2a2.143,2.143,0,0,0,.012-3.035c-.325-.354-.669-.692-1.019-1.022a2.162,2.162,0,0,0-3.154.031c-.391.383-.765.785-1.193,1.225-.675-.688-1.292-1.326-1.919-1.955a2.535,2.535,0,0,0-3.977.005q-3.669,3.664-7.333,7.333a3.886,3.886,0,0,0-.363.392,1.261,1.261,0,0,0,.636,1.986,1.373,1.373,0,0,0,1.475-.5q3.569-3.575,7.14-7.148a3.945,3.945,0,0,0,.366-.516l.676.679"
            transform="translate(-211.861 1460.253)"
            fill="#cbebff"
          />
          <path
            id="Path_128"
            data-name="Path 128"
            d="M1651.529,166.7l3.488,3.49c-.1.108-.209.24-.33.361q-5.7,5.7-11.4,11.413a.875.875,0,0,1-.884.291c-.733-.139-1.475-.244-2.217-.318-.3-.03-.389-.166-.424-.425-.108-.811-.237-1.619-.331-2.432a.643.643,0,0,1,.15-.469q5.941-5.954,11.9-11.89a.145.145,0,0,1,.047-.021"
            transform="translate(-306.92 1317.363)"
            fill="#cbebff"
          />
          <path
            id="Path_129"
            data-name="Path 129"
            d="M1741.187,124.287l-3.375-3.394,5.464-5.463,3.35,3.422-5.439,5.436"
            transform="translate(-391.249 1361.312)"
            fill="#cbebff"
          />
          <path
            id="Path_130"
            data-name="Path 130"
            d="M1799.889,107.341l-.425-.43.99-.95.435.415-1,.965"
            transform="translate(-444.094 1369.428)"
            fill="#cbebff"
          />
        </g>
      </svg>