      <svg
        xmlns="http://www.w3.org/2000/svg"
        width="54.728"
        height="54.743"
        viewBox="0 0 54.728 54.743"
      >
        <g
          id="Group_183"
          data-name="Group 183"
          transform="translate(-1247.913 -1460.253)"
        >
          <path
            id="Path_132"
            data-name="Path 132"
            d="M1137.146,97.719c-1.207.5-2.33.943-3.43,1.439a.767.767,0,0,0-.265.6c-.016,3.438,0,6.877-.015,10.315a6.05,6.05,0,0,1-2.994,5.391,5.623,5.623,0,0,1-3.039.874c-3.723,0-7.447.038-11.17-.009a6.1,6.1,0,0,1-6.024-6.105c-.03-3.527-.017-7.055,0-10.582a.733.733,0,0,0-.552-.806c-2.009-.818-4-1.675-6.007-2.5-.607-.251-1.056-.607-1.044-1.322a1.369,1.369,0,0,1,1.035-1.271q8.84-3.684,17.669-7.392a1.8,1.8,0,0,1,1.49-.007q8.83,3.706,17.668,7.394c.033.014.067.025.1.038a1.3,1.3,0,0,1,.951,1.279,1.214,1.214,0,0,1-.94,1.224c-.728.2-.916.6-.889,1.335.061,1.655.029,3.313.012,4.97a.767.767,0,0,0,.413.76,3.059,3.059,0,0,1,1.16,3.8,3.1,3.1,0,1,1-4.471-3.857c.141-.1.322-.27.323-.41.022-1.691.015-3.382.015-5.15m-24.373,2.42c0,3.292,0,6.48,0,9.668a3.627,3.627,0,0,0,3.937,3.968q5.131.008,10.262,0a5.105,5.105,0,0,0,1.062-.078,3.6,3.6,0,0,0,2.854-3.743c.011-3.047,0-6.093,0-9.14,0-.135-.025-.269-.041-.44-.174.062-.307.1-.434.155-2.477,1.037-4.959,2.062-7.427,3.122a2.083,2.083,0,0,1-1.788.021c-1.792-.784-3.6-1.523-5.408-2.278-.98-.41-1.963-.816-3.018-1.254m24.115-5.111c-.172-.087-.234-.123-.3-.15q-7.087-2.967-14.18-5.919a1.151,1.151,0,0,0-.793.048q-6.972,2.9-13.93,5.826a3.973,3.973,0,0,0-.361.2,1.915,1.915,0,0,0,.188.114q7.136,2.988,14.278,5.962a1.006,1.006,0,0,0,.69-.053q5.495-2.281,10.978-4.589l3.429-1.439m2.149,11.018q0-.125.005-.249c-.205-.134-.415-.377-.615-.369-.181.007-.513.315-.491.442a.769.769,0,0,0,.475.539c.182.031.415-.23.626-.362"
            transform="translate(153.216 1386.386)"
            fill="#5fc8ff"
          />
          <path
            id="Path_131"
            data-name="Path 131"
            d="M1072.88,0h3.422c.155.031.309.067.465.093,1.491.242,3.011.369,4.469.74a27.367,27.367,0,0,1-5.6,53.9,26.746,26.746,0,0,1-17.9-5.819,26.851,26.851,0,0,1-10.113-16.871c-.175-.978-.276-1.969-.411-2.954V25.663c.079-.651.147-1.3.239-1.953a26.922,26.922,0,0,1,6.731-14.551A26.883,26.883,0,0,1,1069.876.421c.995-.176,2-.282,3-.421m16.787,23.853c0,1.767.008,3.459-.014,5.15,0,.14-.183.315-.324.41a3.1,3.1,0,1,0,4.471,3.858,3.059,3.059,0,0,0-1.16-3.8.767.767,0,0,1-.413-.76c.017-1.657.049-3.315-.012-4.97-.027-.731.161-1.135.889-1.335a1.214,1.214,0,0,0,.94-1.224,1.3,1.3,0,0,0-.951-1.279c-.033-.013-.067-.025-.1-.038q-8.835-3.695-17.668-7.394a1.8,1.8,0,0,0-1.49.007q-8.83,3.709-17.67,7.393a1.369,1.369,0,0,0-1.035,1.271c-.012.716.437,1.071,1.044,1.322,2,.829,4,1.686,6.007,2.5a.734.734,0,0,1,.552.806c-.021,3.527-.034,7.055,0,10.582a6.1,6.1,0,0,0,6.024,6.105c3.723.047,7.447.014,11.17.009a5.624,5.624,0,0,0,3.039-.874,6.05,6.05,0,0,0,2.994-5.391c.011-3.438,0-6.877.015-10.315,0-.205.114-.527.265-.6,1.1-.5,2.223-.941,3.429-1.439"
            transform="translate(200.696 1460.253)"
            fill="#cbebff"
          />
          <path
            id="Path_133"
            data-name="Path 133"
            d="M1173.76,183.922c1.056.438,2.038.844,3.018,1.254,1.8.755,3.616,1.494,5.408,2.278a2.083,2.083,0,0,0,1.788-.021c2.467-1.06,4.949-2.085,7.427-3.122.127-.053.26-.093.434-.155.017.17.041.3.041.44,0,3.047.01,6.093,0,9.14a3.6,3.6,0,0,1-2.854,3.743,5.107,5.107,0,0,1-1.062.078q-5.131.008-10.262,0a3.627,3.627,0,0,1-3.937-3.968c0-3.188,0-6.377,0-9.668"
            transform="translate(92.229 1302.604)"
            fill="#cbebff"
          />
          <path
            id="Path_134"
            data-name="Path 134"
            d="M1165.186,111.42l-3.429,1.439q-5.487,2.3-10.978,4.589a1.007,1.007,0,0,1-.69.053q-7.146-2.963-14.278-5.962a1.866,1.866,0,0,1-.188-.114,3.987,3.987,0,0,1,.361-.2q6.962-2.92,13.93-5.826a1.151,1.151,0,0,1,.793-.047q7.1,2.939,14.18,5.919c.065.027.127.063.3.15"
            transform="translate(124.918 1369.995)"
            fill="#cbebff"
          />
          <path
            id="Path_135"
            data-name="Path 135"
            d="M1351.014,221.562c-.211.132-.443.394-.626.362a.769.769,0,0,1-.475-.539c-.022-.126.31-.434.491-.442.2-.008.41.235.615.369,0,.083,0,.166-.005.249"
            transform="translate(-58.76 1270.871)"
            fill="#cbebff"
          />
        </g>
      </svg>
